<svg xmlns="http://www.w3.org/2000/svg" width="1200" height="800" viewBox="0 0 1200 800">
  <defs>
    <linearGradient id="bg" x1="0" y1="0" x2="1" y2="1">
      <stop offset="0%" stop-color="#f0f7ff"/>
      <stop offset="100%" stop-color="#dbeafe"/>
    </linearGradient>
    <linearGradient id="accent" x1="0" y1="0" x2="1" y2="0">
      <stop offset="0%" stop-color="#0ea5e9"/>
      <stop offset="100%" stop-color="#22c55e"/>
    </linearGradient>
  </defs>
  <rect width="1200" height="800" rx="32" fill="url(#bg)"/>
  <rect x="80" y="80" width="1040" height="640" rx="24" fill="#ffffff" stroke="#e2e8f0" stroke-width="2"/>
  <rect x="120" y="130" width="420" height="220" rx="18" fill="#f8fafc" stroke="#e2e8f0"/>
  <rect x="580" y="130" width="500" height="220" rx="18" fill="#f8fafc" stroke="#e2e8f0"/>
  <rect x="120" y="380" width="320" height="260" rx="18" fill="#f8fafc" stroke="#e2e8f0"/>
  <rect x="470" y="380" width="610" height="260" rx="18" fill="#f8fafc" stroke="#e2e8f0"/>
  <rect x="160" y="170" width="340" height="18" rx="9" fill="#e2e8f0"/>
  <rect x="160" y="205" width="220" height="12" rx="6" fill="#cbd5f5"/>
  <rect x="160" y="230" width="300" height="12" rx="6" fill="#cbd5f5"/>
  <rect x="620" y="170" width="420" height="18" rx="9" fill="#e2e8f0"/>
  <rect x="620" y="205" width="280" height="12" rx="6" fill="#cbd5f5"/>
  <rect x="620" y="230" width="340" height="12" rx="6" fill="#cbd5f5"/>
  <rect x="160" y="430" width="260" height="140" rx="12" fill="#ffffff" stroke="#e2e8f0"/>
  <rect x="520" y="430" width="520" height="60" rx="12" fill="#ffffff" stroke="#e2e8f0"/>
  <rect x="520" y="510" width="520" height="60" rx="12" fill="#ffffff" stroke="#e2e8f0"/>
  <rect x="520" y="590" width="520" height="60" rx="12" fill="#ffffff" stroke="#e2e8f0"/>
  <rect x="180" y="610" width="220" height="16" rx="8" fill="#e2e8f0"/>
  <circle cx="235" cy="500" r="36" fill="url(#accent)"/>
  <rect x="520" y="310" width="500" height="8" rx="4" fill="#e2e8f0"/>
  <rect x="520" y="310" width="340" height="8" rx="4" fill="#0ea5e9"/>
</svg>
