<svg xmlns="http://www.w3.org/2000/svg" width="900" height="600" viewBox="0 0 900 600">
  <defs>
    <linearGradient id="bg" x1="0" y1="0" x2="1" y2="1">
      <stop offset="0%" stop-color="#f1f5ff"/>
      <stop offset="100%" stop-color="#ecfeff"/>
    </linearGradient>
  </defs>
  <rect width="900" height="600" rx="24" fill="url(#bg)"/>
  <rect x="70" y="70" width="760" height="460" rx="18" fill="#ffffff" stroke="#e2e8f0" stroke-width="2"/>
  <rect x="120" y="130" width="280" height="320" rx="14" fill="#f8fafc" stroke="#e2e8f0"/>
  <rect x="430" y="130" width="340" height="120" rx="14" fill="#f8fafc" stroke="#e2e8f0"/>
  <rect x="430" y="270" width="340" height="180" rx="14" fill="#f8fafc" stroke="#e2e8f0"/>
  <circle cx="220" cy="210" r="40" fill="#0ea5e9"/>
  <rect x="180" y="270" width="80" height="12" rx="6" fill="#cbd5f5"/>
  <rect x="170" y="300" width="100" height="12" rx="6" fill="#cbd5f5"/>
  <rect x="450" y="170" width="300" height="16" rx="8" fill="#cbd5f5"/>
  <rect x="450" y="200" width="240" height="12" rx="6" fill="#e2e8f0"/>
  <rect x="460" y="310" width="300" height="14" rx="7" fill="#22c55e"/>
  <rect x="460" y="340" width="240" height="12" rx="6" fill="#e2e8f0"/>
  <rect x="460" y="370" width="260" height="12" rx="6" fill="#e2e8f0"/>
</svg>
