<svg xmlns="http://www.w3.org/2000/svg" width="900" height="600" viewBox="0 0 900 600">
  <defs>
    <linearGradient id="bg" x1="0" y1="0" x2="1" y2="1">
      <stop offset="0%" stop-color="#e0f2fe"/>
      <stop offset="100%" stop-color="#f0fdf4"/>
    </linearGradient>
  </defs>
  <rect width="900" height="600" rx="24" fill="url(#bg)"/>
  <rect x="60" y="60" width="780" height="480" rx="18" fill="#ffffff" stroke="#e2e8f0" stroke-width="2"/>
  <rect x="100" y="110" width="200" height="24" rx="12" fill="#e2e8f0"/>
  <rect x="100" y="160" width="700" height="16" rx="8" fill="#cbd5f5"/>
  <rect x="100" y="190" width="620" height="16" rx="8" fill="#cbd5f5"/>
  <rect x="100" y="250" width="160" height="240" rx="12" fill="#f8fafc" stroke="#e2e8f0"/>
  <rect x="280" y="250" width="160" height="240" rx="12" fill="#f8fafc" stroke="#e2e8f0"/>
  <rect x="460" y="250" width="160" height="240" rx="12" fill="#f8fafc" stroke="#e2e8f0"/>
  <rect x="640" y="250" width="160" height="240" rx="12" fill="#f8fafc" stroke="#e2e8f0"/>
  <rect x="120" y="280" width="120" height="16" rx="8" fill="#0ea5e9"/>
  <rect x="300" y="320" width="120" height="16" rx="8" fill="#22c55e"/>
  <rect x="480" y="360" width="120" height="16" rx="8" fill="#f59e0b"/>
  <rect x="660" y="400" width="120" height="16" rx="8" fill="#ef4444"/>
</svg>
